<svg version="1.1" id="Layer_1" xmlns="http://www.w3.org/2000/svg" xmlns:xlink="http://www.w3.org/1999/xlink" x="0px" y="0px"
	 width="100%" viewBox="0 0 96 96" enable-background="new 0 0 96 96" xml:space="preserve">
<path fill="#000000" opacity="1.000000" stroke="none" 
	d="
M66.000000,97.000000 
	C44.000004,97.000000 22.500008,97.000000 1.000009,97.000000 
	C1.000006,65.000008 1.000006,33.000019 1.000003,1.000021 
	C32.999985,1.000014 64.999969,1.000014 96.999969,1.000007 
	C96.999977,32.999981 96.999977,64.999962 96.999985,96.999969 
	C86.833336,97.000000 76.666664,97.000000 66.000000,97.000000 
M14.716117,44.557682 
	C15.487084,44.317043 16.258053,44.076401 17.885612,43.980637 
	C20.881149,43.686184 23.876684,43.391731 26.976927,43.805611 
	C28.175615,45.092915 29.722862,45.996471 29.131927,48.386654 
	C28.621637,50.450653 28.960432,52.724567 28.219486,55.057709 
	C26.126499,59.672981 24.033510,64.288254 21.306904,69.481384 
	C21.204857,72.762543 20.848343,76.059433 21.050140,79.321800 
	C21.581528,87.912453 23.157667,94.923225 35.834637,92.969963 
	C41.224426,92.924263 46.614216,92.878571 52.934563,92.947189 
	C63.254601,92.960320 73.574745,93.006104 83.894630,92.972061 
	C88.664558,92.956322 90.177155,91.399521 88.746994,86.890907 
	C86.909920,81.099487 84.317253,75.547752 81.745895,69.287247 
	C79.493652,66.580078 77.241417,63.872910 74.401833,60.784191 
	C70.612885,57.153290 66.823936,53.522385 62.973492,49.179310 
	C62.906174,47.968166 62.526802,46.672932 62.826534,45.560703 
	C64.010956,41.165634 65.857689,36.906212 66.633308,32.452713 
	C68.257622,23.126184 65.561760,14.567950 58.526897,8.501693 
	C51.264622,2.239339 42.203754,1.554037 32.244072,4.062238 
	C27.668901,5.676421 23.036762,7.224213 21.349283,13.208906 
	C18.565109,17.577501 18.434763,22.174150 20.089417,27.528463 
	C20.101629,27.729012 20.113844,27.929562 19.789570,28.740551 
	C17.199427,30.456905 14.609284,32.173260 11.783041,33.347984 
	C11.017066,33.677322 10.251092,34.006660 9.243325,34.994408 
	C9.203438,35.224777 9.163549,35.455151 8.521317,35.909088 
	C3.742838,38.286045 6.714286,40.184917 9.025064,42.859051 
	C10.724401,43.484810 12.423738,44.110569 14.716117,44.557682 
z"/>
<path fill="#675F60" opacity="1.000000" stroke="none" 
	d="
M82.050095,69.892761 
	C84.317253,75.547752 86.909920,81.099487 88.746994,86.890907 
	C90.177155,91.399521 88.664558,92.956322 83.894630,92.972061 
	C73.574745,93.006104 63.254601,92.960320 52.382084,92.567184 
	C47.954865,88.691025 43.672623,85.543465 40.308334,81.610641 
	C36.084328,76.672821 32.297653,71.198914 34.428711,64.111595 
	C35.804050,64.790222 36.912746,65.323387 38.416115,65.899979 
	C41.875370,65.976120 44.939949,66.008842 48.337440,66.050583 
	C49.114384,66.060616 49.558411,66.061615 50.076412,66.393974 
	C58.246193,79.237961 73.486824,80.751251 82.050095,69.892761 
z"/>
<path fill="#686061" opacity="1.000000" stroke="none" 
	d="
M32.996460,4.169078 
	C42.203754,1.554037 51.264622,2.239339 58.526897,8.501693 
	C65.561760,14.567950 68.257622,23.126184 66.633308,32.452713 
	C65.857689,36.906212 64.010956,41.165634 62.826534,45.560703 
	C62.526802,46.672932 62.906174,47.968166 62.907188,49.858315 
	C61.571529,51.351261 60.302177,52.165207 59.023506,52.551575 
	C58.351170,48.411373 57.688145,44.698750 57.015083,40.612907 
	C56.984432,39.493279 56.963818,38.746872 56.892769,37.619820 
	C55.878052,33.828453 54.913761,30.417727 53.896034,26.680786 
	C52.898094,25.565004 51.953590,24.775436 51.004433,23.991409 
	C50.999771,23.996950 51.014992,23.989574 50.939850,23.622967 
	C50.115620,20.032080 48.043518,18.776121 44.809196,18.982586 
	C42.548443,19.126904 40.272171,19.028076 38.028263,18.639652 
	C39.080746,14.465614 39.556293,10.813499 36.244534,7.751598 
	C35.065556,6.661570 34.073719,5.369125 32.996460,4.169078 
z"/>
<path fill="#645B5C" opacity="1.000000" stroke="none" 
	d="
M34.162071,63.966129 
	C32.297653,71.198914 36.084328,76.672821 40.308334,81.610641 
	C43.672623,85.543465 47.954865,88.691025 51.916805,92.510025 
	C46.614216,92.878571 41.224426,92.924263 35.394966,92.557625 
	C31.820473,86.097481 28.743153,80.018738 25.516098,74.020554 
	C24.536888,72.200478 23.143961,70.602974 21.940525,68.903526 
	C24.033510,64.288254 26.126499,59.672981 28.745834,55.282204 
	C30.841360,57.686291 32.410538,59.865879 34.000923,62.366051 
	C34.068783,63.113129 34.115429,63.539627 34.162071,63.966129 
z"/>
<path fill="#726A6B" opacity="1.000000" stroke="none" 
	d="
M59.032822,52.979153 
	C60.302177,52.165207 61.571529,51.351261 62.937939,50.214401 
	C66.823936,53.522385 70.612885,57.153290 74.697739,61.374977 
	C74.693398,69.418121 68.883835,73.304077 62.249950,69.907166 
	C59.393948,68.444740 57.385117,65.327866 55.008186,62.636971 
	C55.346832,61.527256 55.668709,60.743179 56.284706,59.771950 
	C57.396828,57.382908 58.214825,55.181030 59.032822,52.979153 
z"/>
<path fill="#6D6566" opacity="1.000000" stroke="none" 
	d="
M54.991409,62.962616 
	C57.385117,65.327866 59.393948,68.444740 62.249950,69.907166 
	C68.883835,73.304077 74.693398,69.418121 74.991409,61.565750 
	C77.241417,63.872910 79.493652,66.580078 81.897995,69.590004 
	C73.486824,80.751251 58.246193,79.237961 50.249153,66.126953 
	C51.229202,65.007118 52.110485,64.485657 53.248932,63.854660 
	C54.001202,63.484280 54.496307,63.223450 54.991409,62.962616 
z"/>
<path fill="#B7AFB3" opacity="1.000000" stroke="none" 
	d="
M12.019142,33.889614 
	C14.609284,32.173260 17.199427,30.456905 20.296803,28.571074 
	C24.539293,29.189680 28.274549,29.977762 31.990547,31.166771 
	C31.701689,33.369694 31.432089,35.171688 31.079182,37.316681 
	C29.621321,39.472210 28.246771,41.284744 26.872221,43.097275 
	C23.876684,43.391731 20.881149,43.686184 17.471151,43.734474 
	C17.056690,43.488312 17.090420,43.141392 17.298672,43.054485 
	C16.675585,42.228310 15.844244,41.489040 14.912260,40.475075 
	C13.532987,39.689266 12.254356,39.178146 10.651440,38.754517 
	C10.118464,38.923164 9.909773,39.004333 9.635563,38.658283 
	C9.421248,37.382553 9.272455,36.534039 9.123661,35.685528 
	C9.163549,35.455151 9.203438,35.224777 9.681988,34.830887 
	C10.753481,34.408112 11.386312,34.148865 12.019142,33.889614 
z"/>
<path fill="#605658" opacity="1.000000" stroke="none" 
	d="
M21.623714,69.192459 
	C23.143961,70.602974 24.536888,72.200478 25.516098,74.020554 
	C28.743153,80.018738 31.820473,86.097481 34.981323,92.505051 
	C23.157667,94.923225 21.581528,87.912453 21.050140,79.321800 
	C20.848343,76.059433 21.204857,72.762543 21.623714,69.192459 
z"/>
<path fill="#6C6465" opacity="1.000000" stroke="none" 
	d="
M32.620266,4.115658 
	C34.073719,5.369125 35.065556,6.661570 36.244534,7.751598 
	C39.556293,10.813499 39.080746,14.465614 37.891624,18.823751 
	C37.527813,19.639559 37.296402,19.838572 36.672112,20.070089 
	C27.768356,22.744162 25.454662,21.578188 21.945589,12.898790 
	C23.036762,7.224213 27.668901,5.676421 32.620266,4.115658 
M27.582035,15.659339 
	C29.019413,17.841087 30.895691,18.617973 32.790730,16.502350 
	C33.725410,15.458872 34.686356,13.325324 34.218433,12.407172 
	C33.561180,11.117528 31.584904,10.500109 30.172760,9.595186 
	C29.213091,11.387589 28.253422,13.179991 27.582035,15.659339 
z"/>
<path fill="#686061" opacity="1.000000" stroke="none" 
	d="
M21.647436,13.053848 
	C25.454662,21.578188 27.768356,22.744162 36.591496,20.412430 
	C35.892025,22.807297 34.909950,24.926826 33.489670,27.035460 
	C28.757668,26.993416 24.463875,26.962269 20.170082,26.931122 
	C18.434763,22.174150 18.565109,17.577501 21.647436,13.053848 
z"/>
<path fill="#857C7D" opacity="1.000000" stroke="none" 
	d="
M26.924574,43.451443 
	C28.246771,41.284744 29.621321,39.472210 31.389275,37.202950 
	C33.521278,34.497169 35.259880,32.248112 36.925316,30.367495 
	C35.893459,34.247208 34.331120,37.720074 34.104748,41.277943 
	C33.665901,48.175182 33.978500,55.120232 33.979713,62.045471 
	C32.410538,59.865879 30.841360,57.686291 29.098026,55.206192 
	C28.960432,52.724567 28.621637,50.450653 29.131927,48.386654 
	C29.722862,45.996471 28.175615,45.092915 26.924574,43.451443 
z"/>
<path fill="#5A5253" opacity="1.000000" stroke="none" 
	d="
M20.129749,27.229794 
	C24.463875,26.962269 28.757668,26.993416 33.526611,27.023354 
	C34.001766,27.022146 34.064877,26.976728 33.911469,27.255058 
	C33.175308,28.610874 32.592560,29.688360 32.009808,30.765846 
	C28.274549,29.977762 24.539293,29.189680 20.465046,28.265854 
	C20.113844,27.929562 20.101629,27.729012 20.129749,27.229794 
z"/>
<path fill="#514447" opacity="1.000000" stroke="none" 
	d="
M8.822489,35.797310 
	C9.272455,36.534039 9.421248,37.382553 9.470348,38.832497 
	C9.297182,39.911724 9.223710,40.389526 9.083872,41.182487 
	C8.980070,41.709084 8.942635,41.920509 8.905198,42.131939 
	C6.714286,40.184917 3.742838,38.286045 8.822489,35.797310 
z"/>
<path fill="#686061" opacity="1.000000" stroke="none" 
	d="
M8.965132,42.495495 
	C8.942635,41.920509 8.980070,41.709084 9.415231,41.199318 
	C10.255920,40.858376 10.698885,40.815773 11.432646,40.934097 
	C12.785444,41.220009 13.847446,41.344994 14.980333,41.879131 
	C15.075047,42.564091 15.098875,42.839893 14.910620,43.247826 
	C14.506714,43.832081 14.314894,44.284206 14.123074,44.736328 
	C12.423738,44.110569 10.724401,43.484810 8.965132,42.495495 
z"/>
<path fill="#898080" opacity="1.000000" stroke="none" 
	d="
M11.901093,33.618797 
	C11.386312,34.148865 10.753481,34.408112 9.802883,34.501678 
	C10.251092,34.006660 11.017066,33.677322 11.901093,33.618797 
z"/>
<path fill="#A0969A" opacity="1.000000" stroke="none" 
	d="
M14.419595,44.647003 
	C14.314894,44.284206 14.506714,43.832081 15.237867,43.244667 
	C16.214939,43.120045 16.652679,43.130718 17.090420,43.141392 
	C17.090420,43.141392 17.056690,43.488312 17.042854,43.662037 
	C16.258053,44.076401 15.487084,44.317043 14.419595,44.647003 
z"/>
<path fill="#8E8484" opacity="1.000000" stroke="none" 
	d="
M48.004532,66.041565 
	C44.939949,66.008842 41.875370,65.976120 38.402046,65.503769 
	C36.466133,57.132988 34.526104,49.304306 35.931969,41.040787 
	C36.938160,35.126465 39.941547,30.262377 43.699226,30.168797 
	C47.301723,30.079082 50.437977,35.298203 51.067974,41.190014 
	C51.984806,49.764347 50.889622,57.987606 48.004532,66.041565 
M46.542542,52.917965 
	C47.227234,48.463482 48.356319,44.008034 48.346703,39.555054 
	C48.343498,38.070286 45.599045,35.789318 43.777355,35.393730 
	C42.570957,35.131760 39.962132,37.280312 39.387070,38.861164 
	C36.928848,45.618832 37.271854,52.325493 41.620682,59.957607 
	C43.521698,57.319366 44.861263,55.460308 46.542542,52.917965 
z"/>
<path fill="#898080" opacity="1.000000" stroke="none" 
	d="
M48.337440,66.050583 
	C50.889622,57.987606 51.984806,49.764347 51.067974,41.190014 
	C50.437977,35.298203 47.301723,30.079082 43.699226,30.168797 
	C39.941547,30.262377 36.938160,35.126465 35.931969,41.040787 
	C34.526104,49.304306 36.466133,57.132988 38.007378,65.460350 
	C36.912746,65.323387 35.804050,64.790222 34.428711,64.111595 
	C34.115429,63.539627 34.068783,63.113129 34.000923,62.366051 
	C33.978500,55.120232 33.665901,48.175182 34.104748,41.277943 
	C34.331120,37.720074 35.893459,34.247208 36.985222,30.059185 
	C37.745869,28.588903 38.373444,27.795372 39.382118,26.996517 
	C46.871307,26.138412 52.299461,29.969337 52.816692,37.440201 
	C53.426167,46.243382 52.980141,55.119633 52.991768,63.964203 
	C52.110485,64.485657 51.229202,65.007118 50.175179,65.795593 
	C49.558411,66.061615 49.114384,66.060616 48.337440,66.050583 
z"/>
<path fill="#857C7D" opacity="1.000000" stroke="none" 
	d="
M53.248932,63.854660 
	C52.980141,55.119633 53.426167,46.243382 52.816692,37.440201 
	C52.299461,29.969337 46.871307,26.138412 39.503708,26.744476 
	C39.495438,25.997738 39.746681,25.497715 39.998962,24.998848 
	C40.000000,25.000000 39.997948,24.997360 40.366226,24.927250 
	C46.075283,23.671352 49.216331,25.286953 52.340015,30.668346 
	C53.787849,33.162632 55.403587,35.559456 56.943203,38.000465 
	C56.963818,38.746872 56.984432,39.493279 56.784569,40.958900 
	C56.372917,47.771778 56.181747,53.865444 55.990582,59.959106 
	C55.668709,60.743179 55.346832,61.527256 55.008186,62.636971 
	C54.496307,63.223450 54.001202,63.484280 53.248932,63.854660 
z"/>
<path fill="#7E7576" opacity="1.000000" stroke="none" 
	d="
M33.964821,27.034252 
	C34.909950,24.926826 35.892025,22.807297 36.954712,20.345427 
	C37.296402,19.838572 37.527813,19.639559 37.866188,19.221947 
	C40.272171,19.028076 42.548443,19.126904 44.809196,18.982586 
	C48.043518,18.776121 50.115620,20.032080 50.558315,23.602850 
	C46.789993,23.868820 42.940346,19.994776 39.997948,24.997360 
	C39.997948,24.997360 40.000000,25.000000 39.642464,25.020000 
	C37.544910,25.685577 35.804893,26.331152 34.064877,26.976728 
	C34.064877,26.976728 34.001766,27.022146 33.964821,27.034252 
z"/>
<path fill="#82797A" opacity="1.000000" stroke="none" 
	d="
M40.366226,24.927250 
	C42.940346,19.994776 46.789993,23.868820 50.633453,23.969456 
	C51.014992,23.989574 50.999771,23.996950 51.070934,24.314758 
	C52.077888,25.424042 53.013683,26.215521 53.949471,27.007000 
	C54.913761,30.417727 55.878052,33.828453 56.892769,37.619820 
	C55.403587,35.559456 53.787849,33.162632 52.340015,30.668346 
	C49.216331,25.286953 46.075283,23.671352 40.366226,24.927250 
z"/>
<path fill="#82797A" opacity="1.000000" stroke="none" 
	d="
M56.284706,59.771950 
	C56.181747,53.865444 56.372917,47.771778 56.794601,41.332123 
	C57.688145,44.698750 58.351170,48.411373 59.023506,52.551575 
	C58.214825,55.181030 57.396828,57.382908 56.284706,59.771950 
z"/>
<path fill="#7E7576" opacity="1.000000" stroke="none" 
	d="
M53.896034,26.680786 
	C53.013683,26.215521 52.077888,25.424042 51.075592,24.309216 
	C51.953590,24.775436 52.898094,25.565004 53.896034,26.680786 
z"/>
<path fill="#82797A" opacity="1.000000" stroke="none" 
	d="
M33.911469,27.255058 
	C35.804893,26.331152 37.544910,25.685577 39.641426,25.018848 
	C39.746681,25.497715 39.495438,25.997738 39.122604,26.749800 
	C38.373444,27.795372 37.745869,28.588903 37.058388,29.690746 
	C35.259880,32.248112 33.521278,34.497169 31.472584,36.859955 
	C31.432089,35.171688 31.701689,33.369694 31.990547,31.166771 
	C32.592560,29.688360 33.175308,28.610874 33.911469,27.255058 
z"/>
<path fill="#A0969A" opacity="1.000000" stroke="none" 
	d="
M14.909449,41.469978 
	C13.847446,41.344994 12.785444,41.220009 11.402240,40.587181 
	C11.045934,39.608566 11.010829,39.137798 10.975725,38.667030 
	C12.254356,39.178146 13.532987,39.689266 14.884182,40.655212 
	C14.956746,41.110043 14.909449,41.469978 14.909449,41.469978 
z"/>
<path fill="#82797A" opacity="1.000000" stroke="none" 
	d="
M14.980333,41.879131 
	C14.909449,41.469978 14.956746,41.110043 14.984825,40.929909 
	C15.844244,41.489040 16.675585,42.228310 17.298672,43.054485 
	C16.652679,43.130718 16.214939,43.120045 15.449952,43.112534 
	C15.098875,42.839893 15.075047,42.564091 14.980333,41.879131 
z"/>
<path fill="#898080" opacity="1.000000" stroke="none" 
	d="
M10.651440,38.754517 
	C11.010829,39.137798 11.045934,39.608566 11.111444,40.426250 
	C10.698885,40.815773 10.255920,40.858376 9.481596,40.884155 
	C9.223710,40.389526 9.297182,39.911724 9.535869,39.259712 
	C9.909773,39.004333 10.118464,38.923164 10.651440,38.754517 
z"/>
<path fill="#726A6B" opacity="1.000000" stroke="none" 
	d="
M27.437895,15.315866 
	C28.253422,13.179991 29.213091,11.387589 30.172760,9.595186 
	C31.584904,10.500109 33.561180,11.117528 34.218433,12.407172 
	C34.686356,13.325324 33.725410,15.458872 32.790730,16.502350 
	C30.895691,18.617973 29.019413,17.841087 27.437895,15.315866 
z"/>
<path fill="#928787" opacity="1.000000" stroke="none" 
	d="
M46.371685,53.259609 
	C44.861263,55.460308 43.521698,57.319366 41.620682,59.957607 
	C37.271854,52.325493 36.928848,45.618832 39.387070,38.861164 
	C39.962132,37.280312 42.570957,35.131760 43.777355,35.393730 
	C45.599045,35.789318 48.343498,38.070286 48.346703,39.555054 
	C48.356319,44.008034 47.227234,48.463482 46.371685,53.259609 
z"/>
</svg>